<?xml version="1.0" encoding="UTF-8" standalone="no"?>
<!DOCTYPE svg PUBLIC "-//W3C//DTD SVG 1.0//EN" "http://www.w3.org/TR/2001/PR-SVG-20010719/DTD/svg10.dtd">
<svg width="38cm" height="28cm" viewBox="483 180 748 557" xmlns="http://www.w3.org/2000/svg" xmlns:xlink="http://www.w3.org/1999/xlink">
  <text font-size="12.8" style="fill: #000000;text-anchor:start;font-family:sans-serif;font-style:normal;font-weight:normal" x="483" y="315">
    <tspan x="483" y="315"></tspan>
  </text>
  <text font-size="12.8" style="fill: #000000;text-anchor:start;font-family:sans-serif;font-style:normal;font-weight:normal" x="646" y="378">
    <tspan x="646" y="378"></tspan>
  </text>
  <g>
    <rect style="fill: #ffffff" x="881.4" y="181" width="65.2" height="38"/>
    <rect style="fill: none; fill-opacity:0; stroke-width: 2; stroke: #000000" x="881.4" y="181" width="65.2" height="38"/>
    <text font-size="12.7998" style="fill: #000000;text-anchor:middle;font-family:sans-serif;font-style:normal;font-weight:normal" x="914" y="204.8">
      <tspan x="914" y="204.8">P Index</tspan>
    </text>
  </g>
  <g>
    <rect style="fill: #ffffff" x="566.94" y="270.181" width="124.5" height="38"/>
    <rect style="fill: none; fill-opacity:0; stroke-width: 2; stroke: #000000" x="566.94" y="270.181" width="124.5" height="38"/>
    <text font-size="12.7998" style="fill: #000000;text-anchor:middle;font-family:sans-serif;font-style:normal;font-weight:normal" x="629.19" y="293.981">
      <tspan x="629.19" y="293.981">B Marcar Consulta</tspan>
    </text>
  </g>
  <g>
    <rect style="fill: #ffffff" x="1029.24" y="270.634" width="63.55" height="38"/>
    <rect style="fill: none; fill-opacity:0; stroke-width: 2; stroke: #000000" x="1029.24" y="270.634" width="63.55" height="38"/>
    <text font-size="12.7998" style="fill: #000000;text-anchor:middle;font-family:sans-serif;font-style:normal;font-weight:normal" x="1061.02" y="294.434">
      <tspan x="1061.02" y="294.434">P Login</tspan>
    </text>
  </g>
  <g>
    <rect style="fill: #ffffff" x="1150.01" y="271.724" width="79.35" height="38"/>
    <rect style="fill: none; fill-opacity:0; stroke-width: 2; stroke: #000000" x="1150.01" y="271.724" width="79.35" height="38"/>
    <text font-size="12.7998" style="fill: #000000;text-anchor:middle;font-family:sans-serif;font-style:normal;font-weight:normal" x="1189.69" y="295.524">
      <tspan x="1189.69" y="295.524">P Registro</tspan>
    </text>
  </g>
  <g>
    <rect style="fill: #ffffff" x="985.746" y="614.181" width="152" height="38"/>
    <rect style="fill: none; fill-opacity:0; stroke-width: 2; stroke: #000000" x="985.746" y="614.181" width="152" height="38"/>
    <text font-size="12.7998" style="fill: #000000;text-anchor:middle;font-family:sans-serif;font-style:normal;font-weight:normal" x="1061.75" y="637.981">
      <tspan x="1061.75" y="637.981">P Minha Pagina Médico</tspan>
    </text>
  </g>
  <g>
    <rect style="fill: #ffffff" x="753.777" y="480.547" width="160.05" height="38"/>
    <rect style="fill: none; fill-opacity:0; stroke-width: 2; stroke: #000000" x="753.777" y="480.547" width="160.05" height="38"/>
    <text font-size="12.7998" style="fill: #000000;text-anchor:middle;font-family:sans-serif;font-style:normal;font-weight:normal" x="833.802" y="504.347">
      <tspan x="833.802" y="504.347">P Minha Pagina Paciente</tspan>
    </text>
  </g>
  <g>
    <polyline style="fill: none; fill-opacity:0; stroke-width: 2; stroke: #000000" points="897.7,219 897.7,244.591 629.19,244.591 629.19,260.445 "/>
    <polygon style="fill: #000000" points="629.19,267.945 624.19,257.945 629.19,260.445 634.19,257.945 "/>
    <polygon style="fill: none; fill-opacity:0; stroke-width: 2; stroke: #000000" points="629.19,267.945 624.19,257.945 629.19,260.445 634.19,257.945 "/>
  </g>
  <g>
    <polyline style="fill: none; fill-opacity:0; stroke-width: 2; stroke: #000000" points="930.3,219 930.3,244.817 1061.02,244.817 1061.02,260.897 "/>
    <polygon style="fill: #000000" points="1061.02,268.397 1056.02,258.397 1061.02,260.897 1066.02,258.397 "/>
    <polygon style="fill: none; fill-opacity:0; stroke-width: 2; stroke: #000000" points="1061.02,268.397 1056.02,258.397 1061.02,260.897 1066.02,258.397 "/>
  </g>
  <g>
    <polygon style="fill: #ffffff" points="1060.38,336.284 1141.27,376.728 1060.38,417.173 979.496,376.728 "/>
    <polygon style="fill: none; fill-opacity:0; stroke-width: 2; stroke: #000000" points="1060.38,336.284 1141.27,376.728 1060.38,417.173 979.496,376.728 "/>
    <text font-size="12.7998" style="fill: #000000;text-anchor:middle;font-family:sans-serif;font-style:normal;font-weight:normal" x="1060.38" y="381.528">
      <tspan x="1060.38" y="381.528">Tem Registro?</tspan>
    </text>
  </g>
  <g>
    <line style="fill: none; fill-opacity:0; stroke-width: 2; stroke: #000000" x1="1061.02" y1="308.634" x2="1060.61" y2="326.551"/>
    <polygon style="fill: #000000" points="1060.44,334.049 1055.67,323.937 1060.61,326.551 1065.66,324.166 "/>
    <polygon style="fill: none; fill-opacity:0; stroke-width: 2; stroke: #000000" points="1060.44,334.049 1055.67,323.937 1060.61,326.551 1065.66,324.166 "/>
  </g>
  <g>
    <line style="fill: none; fill-opacity:0; stroke-width: 2; stroke: #000000" x1="1141.27" y1="376.728" x2="1183.99" y2="317.615"/>
    <polygon style="fill: #000000" points="1188.38,311.536 1186.58,322.57 1183.99,317.615 1178.47,316.713 "/>
    <polygon style="fill: none; fill-opacity:0; stroke-width: 2; stroke: #000000" points="1188.38,311.536 1186.58,322.57 1183.99,317.615 1178.47,316.713 "/>
  </g>
  <g>
    <line style="fill: none; fill-opacity:0; stroke-width: 2; stroke: #000000" x1="1150.01" y1="290.724" x2="1102.53" y2="289.819"/>
    <polygon style="fill: #000000" points="1095.03,289.676 1105.12,284.868 1102.53,289.819 1104.93,294.866 "/>
    <polygon style="fill: none; fill-opacity:0; stroke-width: 2; stroke: #000000" points="1095.03,289.676 1105.12,284.868 1102.53,289.819 1104.93,294.866 "/>
  </g>
  <g>
    <polygon style="fill: #ffffff" points="1062.16,458.76 1145.46,498.448 1062.16,538.136 978.852,498.448 "/>
    <polygon style="fill: none; fill-opacity:0; stroke-width: 2; stroke: #000000" points="1062.16,458.76 1145.46,498.448 1062.16,538.136 978.852,498.448 "/>
    <text font-size="12.7998" style="fill: #000000;text-anchor:middle;font-family:sans-serif;font-style:normal;font-weight:normal" x="1062.16" y="503.248">
      <tspan x="1062.16" y="503.248">Conta médica?</tspan>
    </text>
  </g>
  <g>
    <line style="fill: none; fill-opacity:0; stroke-width: 2; stroke: #000000" x1="1060.38" y1="417.173" x2="1061.74" y2="449.032"/>
    <polygon style="fill: #000000" points="1062.06,456.525 1056.64,446.747 1061.74,449.032 1066.63,446.322 "/>
    <polygon style="fill: none; fill-opacity:0; stroke-width: 2; stroke: #000000" points="1062.06,456.525 1056.64,446.747 1061.74,449.032 1066.63,446.322 "/>
  </g>
  <text font-size="12.7998" style="fill: #000000;text-anchor:start;font-family:sans-serif;font-style:normal;font-weight:normal" x="1165.48" y="343.226">
    <tspan x="1165.48" y="343.226">Não</tspan>
  </text>
  <text font-size="12.7998" style="fill: #000000;text-anchor:start;font-family:sans-serif;font-style:normal;font-weight:normal" x="1061.27" y="437.966">
    <tspan x="1061.27" y="437.966">Sim</tspan>
  </text>
  <g>
    <line style="fill: none; fill-opacity:0; stroke-width: 2; stroke: #000000" x1="978.852" y1="498.448" x2="923.562" y2="499.383"/>
    <polygon style="fill: #000000" points="916.063,499.51 925.977,494.341 923.562,499.383 926.146,504.34 "/>
    <polygon style="fill: none; fill-opacity:0; stroke-width: 2; stroke: #000000" points="916.063,499.51 925.977,494.341 923.562,499.383 926.146,504.34 "/>
  </g>
  <text font-size="12.7998" style="fill: #000000;text-anchor:start;font-family:sans-serif;font-style:normal;font-weight:normal" x="946.34" y="498.998">
    <tspan x="946.34" y="498.998">Não</tspan>
  </text>
  <g>
    <line style="fill: none; fill-opacity:0; stroke-width: 2; stroke: #000000" x1="1062.16" y1="538.136" x2="1061.8" y2="604.445"/>
    <polygon style="fill: #000000" points="1061.76,611.945 1056.81,601.918 1061.8,604.445 1066.81,601.972 "/>
    <polygon style="fill: none; fill-opacity:0; stroke-width: 2; stroke: #000000" points="1061.76,611.945 1056.81,601.918 1061.8,604.445 1066.81,601.972 "/>
  </g>
  <text font-size="12.7998" style="fill: #000000;text-anchor:start;font-family:sans-serif;font-style:normal;font-weight:normal" x="1061.95" y="576.158">
    <tspan x="1061.95" y="576.158">Sim</tspan>
  </text>
  <g>
    <polygon style="fill: #ffffff" points="835.313,258 899.126,289.907 835.313,321.813 771.5,289.907 "/>
    <polygon style="fill: none; fill-opacity:0; stroke-width: 2; stroke: #000000" points="835.313,258 899.126,289.907 835.313,321.813 771.5,289.907 "/>
    <text font-size="12.8" style="fill: #000000;text-anchor:middle;font-family:sans-serif;font-style:normal;font-weight:normal" x="835.313" y="294.707">
      <tspan x="835.313" y="294.707">Logado?</tspan>
    </text>
  </g>
  <g>
    <line style="fill: none; fill-opacity:0; stroke-width: 2; stroke: #000000" x1="691.44" y1="289.181" x2="761.764" y2="289.818"/>
    <polygon style="fill: #000000" points="769.264,289.886 759.219,294.796 761.764,289.818 759.31,284.796 "/>
    <polygon style="fill: none; fill-opacity:0; stroke-width: 2; stroke: #000000" points="769.264,289.886 759.219,294.796 761.764,289.818 759.31,284.796 "/>
  </g>
  <g>
    <line style="fill: none; fill-opacity:0; stroke-width: 2; stroke: #000000" x1="899.126" y1="289.907" x2="1019.51" y2="289.654"/>
    <polygon style="fill: #000000" points="1027.01,289.638 1017.02,294.659 1019.51,289.654 1017,284.659 "/>
    <polygon style="fill: none; fill-opacity:0; stroke-width: 2; stroke: #000000" points="1027.01,289.638 1017.02,294.659 1019.51,289.654 1017,284.659 "/>
  </g>
  <text font-size="12.7998" style="fill: #000000;text-anchor:start;font-family:sans-serif;font-style:normal;font-weight:normal" x="973" y="298">
    <tspan x="973" y="298"></tspan>
  </text>
  <text font-size="12.7998" style="fill: #000000;text-anchor:start;font-family:sans-serif;font-style:normal;font-weight:normal" x="964.185" y="289.77">
    <tspan x="964.185" y="289.77">Não</tspan>
  </text>
  <g>
    <rect style="fill: #ffffff" x="793.079" y="372.523" width="86.35" height="38"/>
    <rect style="fill: none; fill-opacity:0; stroke-width: 2; stroke: #000000" x="793.079" y="372.523" width="86.35" height="38"/>
    <text font-size="12.7998" style="fill: #000000;text-anchor:middle;font-family:sans-serif;font-style:normal;font-weight:normal" x="836.254" y="396.323">
      <tspan x="836.254" y="396.323">P Marcação</tspan>
    </text>
  </g>
  <g>
    <line style="fill: none; fill-opacity:0; stroke-width: 2; stroke: #000000" x1="835.313" y1="321.813" x2="836.073" y2="362.789"/>
    <polygon style="fill: #000000" points="836.212,370.287 831.028,360.382 836.073,362.789 841.026,360.196 "/>
    <polygon style="fill: none; fill-opacity:0; stroke-width: 2; stroke: #000000" points="836.212,370.287 831.028,360.382 836.073,362.789 841.026,360.196 "/>
  </g>
  <text font-size="12.7998" style="fill: #000000;text-anchor:start;font-family:sans-serif;font-style:normal;font-weight:normal" x="835.784" y="347.168">
    <tspan x="835.784" y="347.168">Sim</tspan>
  </text>
  <g>
    <line style="fill: none; fill-opacity:0; stroke-width: 2; stroke: #000000" x1="833.802" y1="480.547" x2="835.913" y2="420.253"/>
    <polygon style="fill: #000000" points="836.176,412.758 840.823,422.927 835.913,420.253 830.829,422.577 "/>
    <polygon style="fill: none; fill-opacity:0; stroke-width: 2; stroke: #000000" points="836.176,412.758 840.823,422.927 835.913,420.253 830.829,422.577 "/>
  </g>
  <g>
    <rect style="fill: #ffffff" x="757.563" y="548.095" width="155.2" height="38"/>
    <rect style="fill: none; fill-opacity:0; stroke-width: 2; stroke: #000000" x="757.563" y="548.095" width="155.2" height="38"/>
    <text font-size="12.7998" style="fill: #000000;text-anchor:middle;font-family:sans-serif;font-style:normal;font-weight:normal" x="835.163" y="571.895">
      <tspan x="835.163" y="571.895">P Minha Conta Paciente</tspan>
    </text>
  </g>
  <g>
    <rect style="fill: #ffffff" x="765.95" y="615.706" width="147.15" height="38"/>
    <rect style="fill: none; fill-opacity:0; stroke-width: 2; stroke: #000000" x="765.95" y="615.706" width="147.15" height="38"/>
    <text font-size="12.7998" style="fill: #000000;text-anchor:middle;font-family:sans-serif;font-style:normal;font-weight:normal" x="839.525" y="639.506">
      <tspan x="839.525" y="639.506">P Minha Conta Médico</tspan>
    </text>
  </g>
  <g>
    <line style="fill: none; fill-opacity:0; stroke-width: 2; stroke: #000000" x1="985.746" y1="633.181" x2="922.834" y2="634.502"/>
    <polygon style="fill: #000000" points="915.336,634.659 925.229,629.451 922.834,634.502 925.439,639.448 "/>
    <polygon style="fill: none; fill-opacity:0; stroke-width: 2; stroke: #000000" points="915.336,634.659 925.229,629.451 922.834,634.502 925.439,639.448 "/>
  </g>
  <g>
    <line style="fill: none; fill-opacity:0; stroke-width: 2; stroke: #000000" x1="833.802" y1="518.547" x2="834.715" y2="538.369"/>
    <polygon style="fill: #000000" points="835.06,545.861 829.606,536.102 834.715,538.369 839.595,535.642 "/>
    <polygon style="fill: none; fill-opacity:0; stroke-width: 2; stroke: #000000" points="835.06,545.861 829.606,536.102 834.715,538.369 839.595,535.642 "/>
  </g>
  <g>
    <rect style="fill: #ffffff" x="572.435" y="478.488" width="119.8" height="38"/>
    <rect style="fill: none; fill-opacity:0; stroke-width: 2; stroke: #000000" x="572.435" y="478.488" width="119.8" height="38"/>
    <text font-size="12.8" style="fill: #000000;text-anchor:middle;font-family:sans-serif;font-style:normal;font-weight:normal" x="632.335" y="502.288">
      <tspan x="632.335" y="502.288">Minhas Consultas</tspan>
    </text>
  </g>
  <g>
    <line style="fill: none; fill-opacity:0; stroke-width: 2; stroke: #000000" x1="753.777" y1="499.547" x2="701.965" y2="497.814"/>
    <polygon style="fill: #000000" points="694.47,497.563 704.631,492.9 701.965,497.814 704.297,502.894 "/>
    <polygon style="fill: none; fill-opacity:0; stroke-width: 2; stroke: #000000" points="694.47,497.563 704.631,492.9 701.965,497.814 704.297,502.894 "/>
  </g>
  <g>
    <rect style="fill: #ffffff" x="998.508" y="697.494" width="122.6" height="38"/>
    <rect style="fill: none; fill-opacity:0; stroke-width: 2; stroke: #000000" x="998.508" y="697.494" width="122.6" height="38"/>
    <text font-size="12.7998" style="fill: #000000;text-anchor:middle;font-family:sans-serif;font-style:normal;font-weight:normal" x="1059.81" y="721.294">
      <tspan x="1059.81" y="721.294">Consultas Futuras</tspan>
    </text>
  </g>
  <g>
    <line style="fill: none; fill-opacity:0; stroke-width: 2; stroke: #000000" x1="1061.75" y1="652.181" x2="1060.22" y2="687.767"/>
    <polygon style="fill: #000000" points="1059.9,695.26 1055.34,685.056 1060.22,687.767 1065.33,685.483 "/>
    <polygon style="fill: none; fill-opacity:0; stroke-width: 2; stroke: #000000" points="1059.9,695.26 1055.34,685.056 1060.22,687.767 1065.33,685.483 "/>
  </g>
</svg>
